<?xml version="1.0" encoding="iso-8859-1"?>
<!-- Generator: Adobe Illustrator 19.0.0, SVG Export Plug-In . SVG Version: 6.00 Build 0)  -->
<svg version="1.1" id="Layer_1" xmlns="http://www.w3.org/2000/svg" xmlns:xlink="http://www.w3.org/1999/xlink" x="0px" y="0px"
	 viewBox="0 0 512 512" style="enable-background:new 0 0 512 512;" xml:space="preserve">
<path style="fill:#3C1146;" d="M393.653,322.729H89.699c-34.018,0-62.766-25.518-66.869-59.358
	c-1.139-9.395-1.716-18.977-1.716-28.486c0-62.966,24.584-122.102,69.223-166.514C134.678,24.255,193.471,0,255.989,0
	c0.415,0,0.819,0.001,1.233,0.003c61.265,0.312,119.235,24.286,163.233,67.507c44.005,43.227,68.996,100.761,70.371,162.001
	c0.254,11.308-0.302,22.691-1.653,33.831c-0.952,7.852-8.103,13.427-15.942,12.497c-7.852-0.952-13.448-8.09-12.496-15.943
	c1.186-9.79,1.674-19.796,1.451-29.742c-2.481-110.548-94.493-200.942-205.11-201.506c-0.362,0-0.723-0.001-1.084-0.001
	c-54.899,0-106.516,21.294-145.452,60.031c-39.194,38.996-60.78,90.921-60.78,146.207c0,8.36,0.507,16.785,1.507,25.037
	c2.362,19.475,18.884,34.161,38.432,34.161h303.953c7.911,0,14.323,6.414,14.323,14.323S401.564,322.729,393.653,322.729z"/>
<path style="fill:#D4A8B4;" d="M328.57,308.406H183.43l-18.806,147.615c-2.816,22.102,14.406,41.656,36.686,41.656h109.382
	c22.28,0,39.502-19.554,36.686-41.656L328.57,308.406z"/>
<path style="fill:#3C1146;" d="M310.692,512H201.31c-14.733,0-28.765-6.341-38.502-17.397s-14.253-25.779-12.391-40.393
	l18.806-147.615c0.911-7.153,6.998-12.513,14.209-12.513h145.141c7.21,0,13.298,5.36,14.209,12.513l18.806,147.615
	c1.862,14.614-2.656,29.337-12.391,40.393S325.423,512,310.692,512z M196.043,322.729L178.831,457.83
	c-0.835,6.549,1.109,12.885,5.473,17.84c4.364,4.954,10.403,7.683,17.004,7.683h109.382c6.602,0,12.642-2.729,17.004-7.683
	c4.363-4.954,6.307-11.291,5.473-17.84l-17.212-135.101H196.043z"/>
<path style="fill:#D4A8B4;" d="M230.698,137.169c13.853-13.853,13.853-36.394,0-50.247s-36.394-13.853-50.247,0
	c-13.853,13.853-13.855,36.395-0.001,50.249C194.303,151.024,216.845,151.022,230.698,137.169z"/>
<path style="fill:#3C1146;" d="M205.575,161.884c-0.001,0-0.001,0-0.003,0c-13.328-0.001-25.846-5.181-35.251-14.585
	c-19.438-19.438-19.437-51.067,0.001-70.506c9.406-9.405,21.925-14.585,35.252-14.585s25.846,5.179,35.252,14.585
	c19.438,19.438,19.438,51.065,0,70.505C231.422,156.703,218.902,161.884,205.575,161.884z M205.575,90.856
	c-5.675,0-11.002,2.2-14.995,6.195c-8.269,8.269-8.27,21.724-0.001,29.991c3.993,3.995,9.319,6.193,14.995,6.195c0,0,0,0,0.001,0
	c5.675,0,11-2.2,14.995-6.196c8.269-8.267,8.269-21.723,0-29.99C216.577,93.056,211.25,90.856,205.575,90.856z"/>
<path style="fill:#D4A8B4;" d="M153.932,233.382c13.853-13.853,13.853-36.394,0-50.247s-36.394-13.853-50.247,0
	s-13.855,36.395-0.001,50.249C117.536,247.237,140.078,247.236,153.932,233.382z"/>
<path style="fill:#3C1146;" d="M128.807,258.097c-0.001,0-0.001,0-0.003,0c-13.328-0.001-25.846-5.181-35.251-14.585
	c-19.438-19.438-19.437-51.066,0.001-70.506c9.406-9.405,21.925-14.585,35.252-14.585c13.328,0,25.846,5.179,35.252,14.585
	c19.438,19.438,19.438,51.065,0,70.505C154.654,252.916,142.134,258.097,128.807,258.097z M128.807,187.068
	c-5.675,0-11.002,2.2-14.995,6.195c-8.269,8.269-8.27,21.724-0.001,29.991c3.993,3.995,9.319,6.193,14.995,6.195l0,0
	c5.675,0,11.002-2.2,14.996-6.196c8.269-8.267,8.269-21.723,0-29.99C139.809,189.27,134.484,187.068,128.807,187.068z"/>
<g>
</g>
<g>
</g>
<g>
</g>
<g>
</g>
<g>
</g>
<g>
</g>
<g>
</g>
<g>
</g>
<g>
</g>
<g>
</g>
<g>
</g>
<g>
</g>
<g>
</g>
<g>
</g>
<g>
</g>
</svg>
